<svg xmlns="http://www.w3.org/2000/svg" viewBox="0 0 100 100">
  <defs>
    <linearGradient id="g" x1="0" y1="0" x2="100" y2="100">
      <stop stop-color="#3b82f6"/>
      <stop offset="1" stop-color="#1d4ed8"/>
    </linearGradient>
  </defs>
  <rect width="100" height="100" rx="22" fill="url(#g)"/>
  <path d="M34 40c0-8 8-14 16-14s16 6 16 14-8 14-16 14-16-6-16-14z" fill="#fff" opacity=".25"/>
  <path d="M50 30l3 8 8 3-8 3-3 8-3-8-8-3 8-3 3-8z" fill="#fbbf24"/>
  <path d="M38 58l2 5 5 2-5 2-2 5-2-5-5-2 5-2 2-5z" fill="#fff" opacity=".6"/>
  <path d="M62 62l1.5 4 4 1.5-4 1.5-1.5 4-1.5-4-4-1.5 4-1.5 1.5-4z" fill="#fff" opacity=".45"/>
  <text x="50" y="88" text-anchor="middle" fill="#fff" font-size="24" font-weight="800" font-family="sans-serif">CG</text>
</svg>
